<mxfile host="app.diagrams.net" modified="2024-05-06T12:21:21.883Z" agent="Mozilla/5.0 (Windows NT 10.0; Win64; x64) AppleWebKit/537.36 (KHTML, like Gecko) Chrome/125.0.0.0 Safari/537.36" etag="DRpUNndSYPLM2WX5mdZM" version="24.3.1" type="github">
  <diagram name="Page-1" id="VXtNGIWzz0i97T_DtU3W">
    <mxGraphModel dx="1434" dy="772" grid="1" gridSize="10" guides="1" tooltips="1" connect="1" arrows="1" fold="1" page="1" pageScale="1" pageWidth="827" pageHeight="1169" math="0" shadow="0">
      <root>
        <mxCell id="0" />
        <mxCell id="1" parent="0" />
        <mxCell id="YxgK8Y55ps3ly4krc0S1-2" value="&lt;div&gt;&lt;font style=&quot;&quot;&gt;&lt;font style=&quot;font-size: 35px;&quot;&gt;Composant&lt;/font&gt;&lt;/font&gt;&lt;/div&gt;&lt;div&gt;&lt;font style=&quot;&quot;&gt;&lt;font style=&quot;font-size: 25px;&quot;&gt;&lt;br&gt;&lt;/font&gt;&lt;/font&gt;&lt;/div&gt;&lt;div&gt;&lt;font style=&quot;&quot;&gt;&lt;font style=&quot;font-size: 25px;&quot;&gt;Greetings.svelte&lt;/font&gt;&lt;br&gt;&lt;/font&gt;&lt;/div&gt;&lt;font style=&quot;font-size: 18px;&quot;&gt;C:\Web\Boilerplate\frontend\src\components\Greetings.svelte&lt;/font&gt;&lt;div&gt;&lt;font style=&quot;font-size: 18px;&quot;&gt;&lt;br&gt;&lt;/font&gt;&lt;/div&gt;&lt;div&gt;&lt;font style=&quot;font-size: 18px;&quot;&gt;UX&lt;/font&gt;&lt;/div&gt;&lt;div&gt;&lt;font style=&quot;font-size: 18px;&quot;&gt;&lt;div style=&quot;color: rgb(208, 183, 255); background-color: rgb(17, 0, 46); font-family: Consolas, &amp;quot;Courier New&amp;quot;, monospace; font-size: 14px; line-height: 19px; white-space: pre;&quot;&gt;&lt;span style=&quot;font-style: italic;&quot;&gt;await&lt;/span&gt; &lt;span style=&quot;color: #2de2e6;font-style: italic;&quot;&gt;greetingsStore&lt;/span&gt;&lt;span style=&quot;color: #a690ff;&quot;&gt;.&lt;/span&gt;&lt;span style=&quot;color: #ff52fc;&quot;&gt;createGreeting&lt;/span&gt;(&lt;span style=&quot;color: #2de2e6;&quot;&gt;name&lt;/span&gt;&lt;span style=&quot;color: #a690ff;&quot;&gt;,&lt;/span&gt; &lt;span style=&quot;color: #2de2e6;&quot;&gt;message&lt;/span&gt;&lt;span style=&quot;color: #a690ff;&quot;&gt;,&lt;/span&gt; &lt;span style=&quot;color: #a690ff;&quot;&gt;$&lt;/span&gt;&lt;span style=&quot;color: #2de2e6;&quot;&gt;t&lt;/span&gt;)&lt;span style=&quot;color: #a690ff;&quot;&gt;;&lt;/span&gt;&lt;/div&gt;&lt;/font&gt;&lt;/div&gt;" style="rounded=0;whiteSpace=wrap;html=1;align=center;" vertex="1" parent="1">
          <mxGeometry x="40" y="910" width="760" height="220" as="geometry" />
        </mxCell>
        <mxCell id="YxgK8Y55ps3ly4krc0S1-3" value="&lt;div&gt;&lt;font style=&quot;&quot;&gt;&lt;font style=&quot;font-size: 35px;&quot;&gt;Store&lt;/font&gt;&lt;/font&gt;&lt;/div&gt;&lt;div&gt;&lt;font style=&quot;&quot;&gt;&lt;font style=&quot;font-size: 25px;&quot;&gt;&lt;br&gt;&lt;/font&gt;&lt;/font&gt;&lt;/div&gt;&lt;div&gt;&lt;font style=&quot;&quot;&gt;&lt;font style=&quot;font-size: 25px;&quot;&gt;greetingsStore.ts&lt;/font&gt;&lt;br&gt;&lt;/font&gt;&lt;/div&gt;&lt;font style=&quot;font-size: 18px;&quot;&gt;C:\Web\Boilerplate\frontend\src\stores\Data\greetingsStore.ts&lt;/font&gt;&lt;div&gt;&lt;br&gt;&lt;/div&gt;&lt;div&gt;&lt;font style=&quot;font-size: 18px;&quot;&gt;Data - Apollo - socket - Req Http&lt;/font&gt;&lt;/div&gt;" style="rounded=0;whiteSpace=wrap;html=1;align=center;" vertex="1" parent="1">
          <mxGeometry x="40" y="660" width="760" height="220" as="geometry" />
        </mxCell>
        <mxCell id="YxgK8Y55ps3ly4krc0S1-4" value="&lt;div&gt;&lt;font style=&quot;&quot;&gt;&lt;font style=&quot;font-size: 35px;&quot;&gt;Apollo Front GQL&lt;/font&gt;&lt;/font&gt;&lt;/div&gt;&lt;div&gt;&lt;font style=&quot;&quot;&gt;&lt;font style=&quot;font-size: 25px;&quot;&gt;&lt;br&gt;&lt;/font&gt;&lt;/font&gt;&lt;/div&gt;&lt;div&gt;&lt;font style=&quot;&quot;&gt;&lt;font style=&quot;font-size: 25px;&quot;&gt;Greetings.ts&lt;/font&gt;&lt;br&gt;&lt;/font&gt;&lt;/div&gt;&lt;font style=&quot;font-size: 18px;&quot;&gt;C:\Web\Boilerplate\frontend\src\Apollo\Greetings.ts&lt;/font&gt;&lt;div&gt;&lt;br&gt;&lt;/div&gt;&lt;div&gt;&lt;font style=&quot;font-size: 18px;&quot;&gt;Data - Type&lt;/font&gt;&lt;/div&gt;" style="rounded=0;whiteSpace=wrap;html=1;align=center;" vertex="1" parent="1">
          <mxGeometry x="40" y="420" width="760" height="220" as="geometry" />
        </mxCell>
      </root>
    </mxGraphModel>
  </diagram>
</mxfile>
